<?xml version="1.0" encoding="UTF-8"?>
<svg xmlns="http://www.w3.org/2000/svg" viewBox="0 0 1550 760" width="1550" height="760" font-family="'Noto Sans SC', 'PingFang SC', 'Microsoft YaHei', sans-serif">
  <style>
        .node-label { font-size: 13px; font-weight: 600; }
        .node-sub { font-size: 10px; fill: #666; }
        .edge-path { stroke-width: 2; fill: none; }
        .area-label { font-size: 18px; font-weight: 700; fill-opacity: 0.4; }
        .legend-text { font-size: 11px; fill: #555; }
    </style>
  <defs>
    <filter id="shadow" x="-5%" y="-5%" width="115%" height="115%">
      <feDropShadow dx="1" dy="2" stdDeviation="3" flood-opacity="0.12" />
    </filter>
  </defs>
  <rect x="50" y="24" width="640" height="686" rx="16" fill="#e8f4f8" stroke="#4a90a4" stroke-width="2" stroke-dasharray="8,4" fill-opacity="0.5" />
  <text x="66" y="46" class="area-label" fill="#4a90a4">江州鱼埠</text>
  <rect x="830" y="88" width="640" height="402" rx="16" fill="#f5eef8" stroke="#8e6aad" stroke-width="2" stroke-dasharray="8,4" fill-opacity="0.5" />
  <text x="846" y="110" class="area-label" fill="#8e6aad">云栖城</text>
  <path d="M 300.0 302.0 L 284.0 302.0 L 270.0 302.0 L 270.0 302.0 L 256.0 302.0 L 240.0 302.0" class="edge-path" stroke="#4a90a4" stroke-opacity="0.4" stroke-dasharray="none" stroke-width="2" />
  <path d="M 440.0 302.0 L 456.0 302.0 L 470.0 302.0 L 470.0 302.0 L 484.0 302.0 L 500.0 302.0" class="edge-path" stroke="#4a90a4" stroke-opacity="0.4" stroke-dasharray="none" stroke-width="2" />
  <path d="M 370.0 330.0 L 370.0 346.0 L 370.0 357.0 L 370.0 357.0 L 370.0 368.0 L 370.0 384.0" class="edge-path" stroke="#4a90a4" stroke-opacity="0.4" stroke-dasharray="none" stroke-width="2" />
  <path d="M 570.0 274.0 L 570.0 258.0 L 570.0 247.0 L 570.0 247.0 L 570.0 236.0 L 570.0 220.0" class="edge-path" stroke="#4a90a4" stroke-opacity="0.4" stroke-dasharray="none" stroke-width="2" />
  <path d="M 640.0 302.0 L 656.0 302.0 L 760.0 302.0 L 760.0 302.0 L 864.0 302.0 L 880.0 302.0" class="edge-path" stroke="#4a90a4" stroke-opacity="0.6" stroke-dasharray="6,3" stroke-width="2" />
  <path d="M 170.0 274.0 L 170.0 258.0 L 170.0 247.0 L 170.0 247.0 L 170.0 236.0 L 170.0 220.0" class="edge-path" stroke="#4a90a4" stroke-opacity="0.4" stroke-dasharray="none" stroke-width="2" />
  <path d="M 170.0 330.0 L 170.0 346.0 L 170.0 325.0 L 170.0 325.0 L 170.0 304.0 L 170.0 320.0" class="edge-path" stroke="#4a90a4" stroke-opacity="0.4" stroke-dasharray="none" stroke-width="2" />
  <path d="M 170.0 494.0 L 170.0 478.0 L 170.0 467.0 L 170.0 467.0 L 170.0 456.0 L 170.0 440.0" class="edge-path" stroke="#4a90a4" stroke-opacity="0.4" stroke-dasharray="none" stroke-width="2" />
  <path d="M 240.0 522.0 L 256.0 522.0 L 270.0 522.0 L 270.0 522.0 L 284.0 522.0 L 300.0 522.0" class="edge-path" stroke="#4a90a4" stroke-opacity="0.4" stroke-dasharray="none" stroke-width="2" />
  <path d="M 170.0 550.0 L 170.0 566.0 L 170.0 577.0 L 170.0 577.0 L 170.0 588.0 L 170.0 604.0" class="edge-path" stroke="#4a90a4" stroke-opacity="0.4" stroke-dasharray="none" stroke-width="2" />
  <path d="M 300.0 412.0 L 284.0 412.0 L 270.0 412.0 L 270.0 418.0 L 256.0 418.0 L 240.0 418.0" class="edge-path" stroke="#4a90a4" stroke-opacity="0.4" stroke-dasharray="none" stroke-width="2" />
  <path d="M 440.0 412.0 L 456.0 412.0 L 470.0 412.0 L 470.0 412.0 L 484.0 412.0 L 500.0 412.0" class="edge-path" stroke="#4a90a4" stroke-opacity="0.4" stroke-dasharray="none" stroke-width="2" />
  <path d="M 370.0 440.0 L 370.0 456.0 L 370.0 467.0 L 370.0 467.0 L 370.0 478.0 L 370.0 494.0" class="edge-path" stroke="#4a90a4" stroke-opacity="0.4" stroke-dasharray="none" stroke-width="2" />
  <path d="M 570.0 440.0 L 570.0 456.0 L 570.0 467.0 L 570.0 467.0 L 570.0 478.0 L 570.0 494.0" class="edge-path" stroke="#4a90a4" stroke-opacity="0.4" stroke-dasharray="none" stroke-width="2" />
  <path d="M 440.0 522.0 L 456.0 522.0 L 470.0 522.0 L 470.0 522.0 L 484.0 522.0 L 500.0 522.0" class="edge-path" stroke="#4a90a4" stroke-opacity="0.4" stroke-dasharray="none" stroke-width="2" />
  <path d="M 1020.0 302.0 L 1036.0 302.0 L 1050.0 302.0 L 1050.0 302.0 L 1064.0 302.0 L 1080.0 302.0" class="edge-path" stroke="#8e6aad" stroke-opacity="0.4" stroke-dasharray="none" stroke-width="2" />
  <path d="M 950.0 274.0 L 950.0 258.0 L 950.0 247.0 L 950.0 247.0 L 950.0 236.0 L 950.0 220.0" class="edge-path" stroke="#8e6aad" stroke-opacity="0.4" stroke-dasharray="none" stroke-width="2" />
  <path d="M 950.0 330.0 L 950.0 346.0 L 950.0 357.0 L 950.0 357.0 L 950.0 368.0 L 950.0 384.0" class="edge-path" stroke="#8e6aad" stroke-opacity="0.4" stroke-dasharray="none" stroke-width="2" />
  <path d="M 1220.0 302.0 L 1236.0 302.0 L 1250.0 302.0 L 1250.0 302.0 L 1264.0 302.0 L 1280.0 302.0" class="edge-path" stroke="#8e6aad" stroke-opacity="0.4" stroke-dasharray="none" stroke-width="2" />
  <path d="M 1150.0 274.0 L 1150.0 258.0 L 1150.0 247.0 L 1150.0 247.0 L 1150.0 236.0 L 1150.0 220.0" class="edge-path" stroke="#8e6aad" stroke-opacity="0.4" stroke-dasharray="none" stroke-width="2" />
  <path d="M 1150.0 330.0 L 1150.0 346.0 L 1150.0 357.0 L 1150.0 357.0 L 1150.0 368.0 L 1150.0 384.0" class="edge-path" stroke="#8e6aad" stroke-opacity="0.4" stroke-dasharray="none" stroke-width="2" />
  <path d="M 1020.0 192.0 L 1036.0 192.0 L 1050.0 192.0 L 1050.0 192.0 L 1064.0 192.0 L 1080.0 192.0" class="edge-path" stroke="#8e6aad" stroke-opacity="0.4" stroke-dasharray="none" stroke-width="2" />
  <path d="M 1350.0 330.0 L 1350.0 346.0 L 1350.0 357.0 L 1350.0 357.0 L 1350.0 368.0 L 1350.0 384.0" class="edge-path" stroke="#8e6aad" stroke-opacity="0.4" stroke-dasharray="none" stroke-width="2" />
  <path d="M 1020.0 412.0 L 1036.0 412.0 L 1050.0 412.0 L 1050.0 412.0 L 1064.0 412.0 L 1080.0 412.0" class="edge-path" stroke="#8e6aad" stroke-opacity="0.4" stroke-dasharray="none" stroke-width="2" />
  <path d="M 1220.0 412.0 L 1236.0 412.0 L 1250.0 412.0 L 1250.0 412.0 L 1264.0 412.0 L 1280.0 412.0" class="edge-path" stroke="#8e6aad" stroke-opacity="0.4" stroke-dasharray="none" stroke-width="2" />
  <g filter="url(#shadow)">
    <rect x="300.0" y="274.0" width="140" height="56" rx="10" fill="#d4eef6" stroke="#4a90a4" stroke-width="2" />
    <text x="370.0" y="294.0" text-anchor="middle" class="node-label" fill="#4a90a4">🌊 渔户营</text>
    <text x="370.0" y="312.0" text-anchor="middle" class="node-sub">Lv.1-8  👤×3</text>
  </g>
  <g filter="url(#shadow)">
    <rect x="500.0" y="274.0" width="140" height="56" rx="10" fill="#d4eef6" stroke="#4a90a4" stroke-width="2" />
    <text x="570.0" y="294.0" text-anchor="middle" class="node-label" fill="#4a90a4">🌊 渔户营东侧码头</text>
    <text x="570.0" y="312.0" text-anchor="middle" class="node-sub">Lv.1-5</text>
  </g>
  <g filter="url(#shadow)">
    <rect x="100.0" y="274.0" width="140" height="56" rx="10" fill="#d4eef6" stroke="#4a90a4" stroke-width="2" />
    <text x="170.0" y="294.0" text-anchor="middle" class="node-label" fill="#4a90a4">🌊 江州鱼市</text>
    <text x="170.0" y="312.0" text-anchor="middle" class="node-sub">Lv.1-8  👤×3  📦×5</text>
  </g>
  <g filter="url(#shadow)">
    <rect x="100.0" y="494.0" width="140" height="56" rx="10" fill="#d4eef6" stroke="#4a90a4" stroke-width="2" />
    <text x="170.0" y="514.0" text-anchor="middle" class="node-label" fill="#4a90a4">🌊 清鳞分拣厂</text>
    <text x="170.0" y="532.0" text-anchor="middle" class="node-sub">Lv.1-6  👤×2</text>
  </g>
  <g filter="url(#shadow)">
    <rect x="300.0" y="384.0" width="140" height="56" rx="10" fill="#d4eef6" stroke="#4a90a4" stroke-width="2" />
    <text x="370.0" y="404.0" text-anchor="middle" class="node-label" fill="#4a90a4">🌊 蓄鱼仓</text>
    <text x="370.0" y="422.0" text-anchor="middle" class="node-sub">Lv.1-6  👤×2  ⚔️</text>
  </g>
  <g filter="url(#shadow)">
    <rect x="500.0" y="384.0" width="140" height="56" rx="10" fill="#d4eef6" stroke="#4a90a4" stroke-width="2" />
    <text x="570.0" y="404.0" text-anchor="middle" class="node-label" fill="#4a90a4">🌊 捕鱼房</text>
    <text x="570.0" y="422.0" text-anchor="middle" class="node-sub">Lv.1-6  👤×2  📦×3</text>
  </g>
  <g filter="url(#shadow)">
    <rect x="300.0" y="494.0" width="140" height="56" rx="10" fill="#d4eef6" stroke="#4a90a4" stroke-width="2" />
    <text x="370.0" y="514.0" text-anchor="middle" class="node-label" fill="#4a90a4">🌊 江州官仓</text>
    <text x="370.0" y="532.0" text-anchor="middle" class="node-sub">Lv.1-8  👤×2</text>
  </g>
  <g filter="url(#shadow)">
    <rect x="500.0" y="494.0" width="140" height="56" rx="10" fill="#d4eef6" stroke="#4a90a4" stroke-width="2" />
    <text x="570.0" y="514.0" text-anchor="middle" class="node-label" fill="#4a90a4">🌊 修辑坊</text>
    <text x="570.0" y="532.0" text-anchor="middle" class="node-sub">Lv.1-8  👤×2</text>
  </g>
  <g filter="url(#shadow)">
    <rect x="100.0" y="604.0" width="140" height="56" rx="10" fill="#d4eef6" stroke="#4a90a4" stroke-width="2" />
    <text x="170.0" y="624.0" text-anchor="middle" class="node-label" fill="#4a90a4">🌊 活鱼递运廊</text>
    <text x="170.0" y="642.0" text-anchor="middle" class="node-sub">Lv.1-6  👤×2</text>
  </g>
  <g filter="url(#shadow)">
    <rect x="100.0" y="320.0" width="140" height="120" rx="10" fill="#d4eef6" stroke="#4a90a4" stroke-width="2" />
    <text x="170.0" y="338.0" text-anchor="middle" font-size="11" font-weight="600" fill="#4a90a4">🌊栖浪酒家·三层</text>
    <text x="170.0" y="353.0" text-anchor="middle" font-size="9" fill="#888">Lv.1-8  👤1</text>
    <line x1="108.0" y1="361.0" x2="232.0" y2="361.0" stroke="#4a90a4" stroke-opacity="0.2" stroke-dasharray="4,3" />
    <text x="170.0" y="376.0" text-anchor="middle" font-size="11" font-weight="600" fill="#4a90a4">🌊栖浪酒家·二层</text>
    <text x="170.0" y="391.0" text-anchor="middle" font-size="9" fill="#888">Lv.1-8</text>
    <line x1="108.0" y1="399.0" x2="232.0" y2="399.0" stroke="#4a90a4" stroke-opacity="0.2" stroke-dasharray="4,3" />
    <text x="170.0" y="414.0" text-anchor="middle" font-size="11" font-weight="600" fill="#4a90a4">🌊栖浪酒家·一层</text>
    <text x="170.0" y="429.0" text-anchor="middle" font-size="9" fill="#888">Lv.1-8  👤2  📦3</text>
    <text x="244.0" y="384.0" font-size="12" fill="#4a90a4" opacity="0.6">↕3F</text>
  </g>
  <g filter="url(#shadow)">
    <rect x="100.0" y="164.0" width="140" height="56" rx="10" fill="#d4eef6" stroke="#4a90a4" stroke-width="2" />
    <text x="170.0" y="184.0" text-anchor="middle" class="node-label" fill="#4a90a4">🌊 海港商会</text>
    <text x="170.0" y="202.0" text-anchor="middle" class="node-sub">Lv.1-8  👤×3  📦×1</text>
  </g>
  <g filter="url(#shadow)">
    <rect x="500.0" y="100.0" width="140" height="120" rx="10" fill="#d4eef6" stroke="#4a90a4" stroke-width="2" />
    <text x="570.0" y="118.0" text-anchor="middle" font-size="11" font-weight="600" fill="#e74c3c">🌊玄章镇潮阁·三层 ⚠️</text>
    <text x="570.0" y="133.0" text-anchor="middle" font-size="9" fill="#888">Lv.3-10  👤1  📦1</text>
    <line x1="508.0" y1="141.0" x2="632.0" y2="141.0" stroke="#4a90a4" stroke-opacity="0.2" stroke-dasharray="4,3" />
    <text x="570.0" y="156.0" text-anchor="middle" font-size="11" font-weight="600" fill="#4a90a4">🌊玄章镇潮阁·二层</text>
    <text x="570.0" y="171.0" text-anchor="middle" font-size="9" fill="#888">Lv.2-8  ⚔️</text>
    <line x1="508.0" y1="179.0" x2="632.0" y2="179.0" stroke="#4a90a4" stroke-opacity="0.2" stroke-dasharray="4,3" />
    <text x="570.0" y="194.0" text-anchor="middle" font-size="11" font-weight="600" fill="#4a90a4">🌊玄章镇潮阁·一层</text>
    <text x="570.0" y="209.0" text-anchor="middle" font-size="9" fill="#888">Lv.2-8  👤1  📦3</text>
    <text x="644.0" y="164.0" font-size="12" fill="#4a90a4" opacity="0.6">↕3F</text>
  </g>
  <g filter="url(#shadow)">
    <rect x="880.0" y="274.0" width="140" height="56" rx="10" fill="#ead8f5" stroke="#8e6aad" stroke-width="2" />
    <text x="950.0" y="294.0" text-anchor="middle" class="node-label" fill="#8e6aad">☁️ 朝元门</text>
    <text x="950.0" y="312.0" text-anchor="middle" class="node-sub">Lv.5-15  👤×2</text>
  </g>
  <g filter="url(#shadow)">
    <rect x="1080.0" y="274.0" width="140" height="56" rx="10" fill="#ead8f5" stroke="#8e6aad" stroke-width="2" />
    <text x="1150.0" y="294.0" text-anchor="middle" class="node-label" fill="#8e6aad">☁️ 烟舟坊</text>
    <text x="1150.0" y="312.0" text-anchor="middle" class="node-sub">Lv.5-15  👤×3  📦×5</text>
  </g>
  <g filter="url(#shadow)">
    <rect x="880.0" y="164.0" width="140" height="56" rx="10" fill="#ead8f5" stroke="#8e6aad" stroke-width="2" />
    <text x="950.0" y="184.0" text-anchor="middle" class="node-label" fill="#8e6aad">☁️ 引航台</text>
    <text x="950.0" y="202.0" text-anchor="middle" class="node-sub">Lv.5-15  👤×2  📦×1</text>
  </g>
  <g filter="url(#shadow)">
    <rect x="1080.0" y="164.0" width="140" height="56" rx="10" fill="#ead8f5" stroke="#8e6aad" stroke-width="2" />
    <text x="1150.0" y="184.0" text-anchor="middle" class="node-label" fill="#8e6aad">☁️ 望霄楼</text>
    <text x="1150.0" y="202.0" text-anchor="middle" class="node-sub">Lv.5-15  👤×3  📦×1</text>
  </g>
  <g filter="url(#shadow)">
    <rect x="1280.0" y="274.0" width="140" height="56" rx="10" fill="#ead8f5" stroke="#8e6aad" stroke-width="2" />
    <text x="1350.0" y="294.0" text-anchor="middle" class="node-label" fill="#8e6aad">⛰️ 青蔬坊</text>
    <text x="1350.0" y="312.0" text-anchor="middle" class="node-sub">Lv.5-12  👤×2  📦×5  ⚔️</text>
  </g>
  <g filter="url(#shadow)">
    <rect x="880.0" y="384.0" width="140" height="56" rx="10" fill="#ead8f5" stroke="#8e6aad" stroke-width="2" />
    <text x="950.0" y="404.0" text-anchor="middle" class="node-label" fill="#8e6aad">☁️ 云舟修葺台</text>
    <text x="950.0" y="422.0" text-anchor="middle" class="node-sub">Lv.8-18  👤×3  📦×3  ⚔️</text>
  </g>
  <g filter="url(#shadow)">
    <rect x="1080.0" y="384.0" width="140" height="56" rx="10" fill="#ead8f5" stroke="#8e6aad" stroke-width="2" />
    <text x="1150.0" y="404.0" text-anchor="middle" class="node-label" fill="#8e6aad">☁️ 市集</text>
    <text x="1150.0" y="422.0" text-anchor="middle" class="node-sub">Lv.5-15  👤×3  📦×1</text>
  </g>
  <g filter="url(#shadow)">
    <rect x="1280.0" y="384.0" width="140" height="56" rx="10" fill="#ead8f5" stroke="#e74c3c" stroke-width="2.5" />
    <text x="1350.0" y="404.0" text-anchor="middle" class="node-label" fill="#8e6aad">☁️ 通玄门</text>
    <text x="1350.0" y="422.0" text-anchor="middle" class="node-sub">Lv.10-25  👤×2  ⚔️</text>
    <text x="1412.0" y="398.0" text-anchor="end" font-size="10">⚠️</text>
  </g>
  <g opacity="0.5">
    <circle cx="1495.0" cy="60" r="28" fill="white" stroke="#999" stroke-width="1" />
    <text x="1495.0" y="44" text-anchor="middle" font-size="11" font-weight="600" fill="#555">北</text>
    <text x="1495.0" y="82" text-anchor="middle" font-size="11" font-weight="600" fill="#555">南</text>
    <text x="1515.0" y="64" text-anchor="middle" font-size="11" font-weight="600" fill="#555">东</text>
    <text x="1475.0" y="64" text-anchor="middle" font-size="11" font-weight="600" fill="#555">西</text>
    <path d="M 1495.0 56 L 1491.0 64 L 1499.0 64 Z" fill="#e74c3c" />
  </g>
  <g>
    <rect x="16" y="692" width="240" height="58" rx="8" fill="white" stroke="#ccc" fill-opacity="0.9" />
    <text x="26" y="710" class="legend-text">实线 = 同区域  虚线 = 跨区域</text>
    <text x="26" y="726" class="legend-text">⚠️ 红框 = 危险区域（非安全区）</text>
    <text x="26" y="742" class="legend-text">⚔️ = 怪物  👤 = NPC  📦 = 物品</text>
  </g>
</svg>